<?xml version="1.0" encoding="UTF-8" standalone="no"?>
<!-- Created with Inkscape (http://www.inkscape.org/) -->

<svg
   xmlns:dc="http://purl.org/dc/elements/1.1/"
   xmlns:cc="http://creativecommons.org/ns#"
   xmlns:rdf="http://www.w3.org/1999/02/22-rdf-syntax-ns#"
   xmlns:svg="http://www.w3.org/2000/svg"
   xmlns="http://www.w3.org/2000/svg"
   xmlns:sodipodi="http://sodipodi.sourceforge.net/DTD/sodipodi-0.dtd"
   xmlns:inkscape="http://www.inkscape.org/namespaces/inkscape"
   width="297mm"
   height="100mm"
   viewBox="0 0 1052.3622 354.3307"
   id="svg4320"
   version="1.1"
   inkscape:version="0.91 r13725"
   sodipodi:docname="logo.svg"
   inkscape:export-filename="/home/kinow/logo.png"
   inkscape:export-xdpi="90"
   inkscape:export-ydpi="90">
  <defs
     id="defs4322" />
  <sodipodi:namedview
     id="base"
     pagecolor="#ffffff"
     bordercolor="#666666"
     borderopacity="1.0"
     inkscape:pageopacity="0.0"
     inkscape:pageshadow="2"
     inkscape:zoom="0.49497475"
     inkscape:cx="558.18515"
     inkscape:cy="168.765"
     inkscape:document-units="px"
     inkscape:current-layer="layer1"
     showgrid="false"
     inkscape:window-width="1600"
     inkscape:window-height="846"
     inkscape:window-x="0"
     inkscape:window-y="25"
     inkscape:window-maximized="1" />
  <metadata
     id="metadata4325">
    <rdf:RDF>
      <cc:Work
         rdf:about="">
        <dc:format>image/svg+xml</dc:format>
        <dc:type
           rdf:resource="http://purl.org/dc/dcmitype/StillImage" />
        <dc:title></dc:title>
      </cc:Work>
    </rdf:RDF>
  </metadata>
  <g
     inkscape:label="Layer 1"
     inkscape:groupmode="layer"
     id="layer1"
     transform="translate(0,-698.0315)">
    <g
       id="g5125"
       transform="translate(15.491288,198.2546)">
      <g
         transform="matrix(0.52411588,0,0,0.52411588,482.9023,231.94218)"
         id="g4914">
        <a
           style="display:inline"
           id="a4305"
           transform="matrix(3.5957524,0,0,3.5957524,-2142.347,-421.75629)">
          <path
             sodipodi:nodetypes="sscscccs"
             inkscape:connector-curvature="0"
             id="path4225"
             d="m 740.08474,365.42781 c 25.16744,14.91664 86.05743,9.74743 107.95803,-4.74375 17.60715,-11.65029 -12.88994,-11.21263 -9.28572,-12.14286 0,0 -7.14286,-55.71428 -19.28571,-57.85714 -12.14286,-2.14286 -25,12.14286 -25,12.14286 0,0 -11.42857,-15 -22.14286,-15 -16.9328,3.39562 -23.28611,51.02552 -25,65 -20.82411,-0.0124 -14.37787,8.37252 -7.24374,12.60089 z"
             style="fill:#000000;fill-rule:evenodd;stroke:#000000;stroke-width:1px;stroke-linecap:butt;stroke-linejoin:miter;stroke-opacity:1" />
        </a>
        <path
           style="display:inline;fill:#ffffff;fill-rule:evenodd;stroke:none;stroke-width:1px;stroke-linecap:butt;stroke-linejoin:miter;stroke-opacity:1"
           d="m 546.59183,845.41504 c 87.93775,9.98752 160.39382,28.55696 325.08711,-13.1669 l -4.54032,-29.0581 c -85.21732,30.06664 -178.21343,36.12401 -317.36858,17.25325 z"
           id="path4230"
           inkscape:connector-curvature="0"
           sodipodi:nodetypes="ccccc" />
        <path
           style="display:inline;fill:#000000;fill-rule:evenodd;stroke:#000000;stroke-width:4.26337528px;stroke-linecap:butt;stroke-linejoin:miter;stroke-opacity:1"
           d="m 666.05059,991.56021 c 0,0 20.23247,-41.97534 38.82715,-40.3498 37.16196,3.24865 62.42801,92.88059 62.42801,92.88059 l 46.44037,-33.4979 c 0,0 -30.9421,70.7313 -63.18931,73.8478 -35.78043,3.458 -84.50622,-66.9959 -84.50622,-66.9959 0,0 -55.88579,59.9014 -86.0288,47.2016 -23.54718,-9.9208 -20.55556,-73.84774 -20.55556,-73.84774 l 25.12346,41.11114 c 0,0 16.31859,-79.89749 47.96298,-82.22221 17.82624,-1.30965 33.49792,41.87242 33.49792,41.87242 z"
           id="path4277"
           inkscape:connector-curvature="0"
           sodipodi:nodetypes="caccacaccac" />
      </g>
      <text
         sodipodi:linespacing="125%"
         id="text4920"
         y="756.8233"
         x="47.591007"
         style="font-style:normal;font-weight:normal;font-size:40px;line-height:125%;font-family:sans-serif;letter-spacing:0px;word-spacing:0px;fill:#000000;fill-opacity:1;stroke:none;stroke-width:1px;stroke-linecap:butt;stroke-linejoin:miter;stroke-opacity:1"
         xml:space="preserve"><tspan
           style="font-style:normal;font-variant:normal;font-weight:bold;font-stretch:normal;font-size:125px;font-family:'Noto Serif';-inkscape-font-specification:'Noto Serif Bold';letter-spacing:-2.5px"
           y="756.8233"
           x="47.591007"
           id="tspan4922"
           sodipodi:role="line"><tspan
             id="tspan4924"
             style="font-style:normal;font-variant:normal;font-weight:bold;font-stretch:normal;font-size:150px;font-family:'Noto Serif';-inkscape-font-specification:'Noto Serif Bold'">N</tspan><tspan
             id="tspan5123"
             style="font-size:137.5px">esto</tspan><tspan
             id="tspan4982"
             style="font-size:137.5px;letter-spacing:-10px">r</tspan><tspan
             id="tspan4932"
             style="font-size:137.5px"><tspan
   id="tspan4984"
   style="letter-spacing:-10px"> Q</tspan>A</tspan></tspan></text>
    </g>
  </g>
</svg>
